<svg width="24" height="24" viewBox="0 0 24 24" fill="none" xmlns="http://www.w3.org/2000/svg">
<path fill-rule="evenodd" clip-rule="evenodd" d="M7.5435 19.9518C8.2575 19.9518 8.8385 20.5318 8.8385 21.2458C8.8385 21.9598 8.2575 22.5408 7.5435 22.5408C6.8295 22.5408 6.2495 21.9598 6.2495 21.2458C6.2495 20.5318 6.8295 19.9518 7.5435 19.9518ZM18.8238 19.9518C19.5388 19.9518 20.1198 20.5318 20.1198 21.2458C20.1198 21.9598 19.5388 22.5408 18.8238 22.5408C18.1098 22.5408 17.5298 21.9598 17.5298 21.2458C17.5298 20.5318 18.1098 19.9518 18.8238 19.9518ZM3.2677 3.00943L5.3477 3.36943C5.6827 3.42843 5.9377 3.70643 5.9667 4.04643L6.2017 6.84743L7.07555 6.8478C7.21815 6.84787 7.35923 6.84793 7.49882 6.84799L9.10313 6.84875C9.23101 6.84882 9.35746 6.84888 9.48249 6.84895L11.2539 6.84992C11.3652 6.84998 11.4751 6.85005 11.5838 6.85011L12.8251 6.85091C12.9234 6.85097 13.0205 6.85104 13.1164 6.85111L14.2082 6.85191C14.2944 6.85198 14.3794 6.85205 14.4633 6.85211L15.4152 6.85293C15.4901 6.853 15.5639 6.85307 15.6366 6.85314L16.2623 6.85376C16.3286 6.85383 16.394 6.8539 16.4583 6.85397L17.1829 6.85481C17.2394 6.85488 17.295 6.85495 17.3496 6.85502L17.9614 6.85588C18.0088 6.85595 18.0554 6.85602 18.1011 6.85609L18.4899 6.85674C18.5306 6.85681 18.5706 6.85688 18.6097 6.85696L19.0428 6.85784C19.0759 6.85791 19.1083 6.85798 19.14 6.85806L19.4066 6.85872C19.4342 6.8588 19.4611 6.85887 19.4874 6.85895L19.7732 6.85985C19.7946 6.85992 19.8154 6.86 19.8357 6.86007L20.0035 6.86076C20.0205 6.86084 20.0371 6.86091 20.0531 6.86099L20.2228 6.86191C20.2352 6.86199 20.2471 6.86207 20.2586 6.86215L20.3511 6.86285C20.3602 6.86293 20.3689 6.863 20.3773 6.86308L20.4439 6.86379C20.4504 6.86387 20.4565 6.86395 20.4624 6.86403L20.5077 6.86475C20.5119 6.86483 20.516 6.86491 20.5198 6.86499L20.5484 6.86572C20.5511 6.8658 20.5535 6.86588 20.5558 6.86596L20.5766 6.86694C20.5778 6.86702 20.579 6.8671 20.5801 6.86718C20.5898 6.86809 20.5913 6.86826 20.5927 6.86843C21.1497 6.94943 21.6397 7.24043 21.9737 7.68843C22.3077 8.13543 22.4477 8.68643 22.3677 9.23843L21.4187 15.7964C21.2397 17.0444 20.1557 17.9854 18.8957 17.9854H7.9747C6.6577 17.9854 5.5427 16.9574 5.4357 15.6424L4.5197 4.74843L3.0127 4.48843C2.6037 4.41643 2.3307 4.02943 2.4007 3.62043C2.4727 3.21143 2.8677 2.94543 3.2677 3.00943ZM6.87493 8.34777L6.3277 8.34743L6.9307 15.5194C6.9747 16.0714 7.4257 16.4854 7.9767 16.4854H18.8937C19.4147 16.4854 19.8597 16.0974 19.9337 15.5824L20.8837 9.02343C20.9057 8.86743 20.8667 8.71143 20.7717 8.58543C20.6777 8.45843 20.5397 8.37643 20.3837 8.35443C20.3765 8.3547 20.3592 8.35495 20.3324 8.35518L20.2236 8.35581C20.2009 8.3559 20.1758 8.35599 20.1486 8.35607L19.5821 8.35693C19.5343 8.35696 19.4846 8.35699 19.4331 8.35702L18.1011 8.35696C18.0268 8.35693 17.951 8.3569 17.874 8.35687L16.3539 8.35595C16.2628 8.35588 16.1707 8.35581 16.0777 8.35574L15.2176 8.35505C15.1196 8.35497 15.0209 8.35489 14.9215 8.3548L14.0104 8.354C13.9075 8.35391 13.8042 8.35381 13.7003 8.35372L13.0728 8.35314C12.9675 8.35304 12.8619 8.35295 12.756 8.35285L11.7983 8.35195C11.6915 8.35185 11.5847 8.35175 11.4778 8.35165L10.8372 8.35106C10.7306 8.35096 10.6241 8.35086 10.5177 8.35076L9.88254 8.35019C9.77719 8.35009 9.67216 8.35 9.56749 8.34991L8.63698 8.34911C8.53505 8.34902 8.43368 8.34894 8.33291 8.34885L7.15699 8.34796C7.06209 8.34789 6.96805 8.34783 6.87493 8.34777ZM17.2876 10.5437C17.7016 10.5437 18.0376 10.8797 18.0376 11.2937C18.0376 11.7077 17.7016 12.0437 17.2876 12.0437H14.5156C14.1006 12.0437 13.7656 11.7077 13.7656 11.2937C13.7656 10.8797 14.1006 10.5437 14.5156 10.5437H17.2876Z" fill="black"/>
</svg>
