<svg width="137" height="24" viewBox="0 0 137 24" fill="none" xmlns="http://www.w3.org/2000/svg">
<path d="M21.0083 8.99365V7.48193C21.0083 6.49215 20.615 5.54266 19.9152 4.84277C19.2153 4.14289 18.266 3.75 17.2762 3.75H16.0703" stroke="white" stroke-width="1.5" stroke-linecap="round" stroke-linejoin="round"/>
<path d="M3.75 8.99365V7.48193C3.75027 6.49205 4.14358 5.54263 4.84363 4.84277C5.54367 4.14292 6.49303 3.75 7.48291 3.75H8.71899" stroke="white" stroke-width="1.5" stroke-linecap="round" stroke-linejoin="round"/>
<path d="M3.75 15.7646V17.2769C3.75 18.2669 4.14331 19.2164 4.84338 19.9165C5.54346 20.6166 6.49286 21.0098 7.48291 21.0098H8.68896" stroke="white" stroke-width="1.5" stroke-linecap="round" stroke-linejoin="round"/>
<path d="M21.01 15.7646V17.2769C21.0101 17.767 20.9137 18.2522 20.7262 18.7051C20.5387 19.158 20.2638 19.5698 19.9172 19.9165C19.5707 20.2632 19.1593 20.538 18.7064 20.7256C18.2536 20.9132 17.7681 21.0098 17.278 21.0098H16.042" stroke="white" stroke-width="1.5" stroke-linecap="round" stroke-linejoin="round"/>
<path d="M9.08301 15.4976C11.302 17.3216 13.501 17.3576 15.678 15.4976" stroke="white" stroke-width="1.5" stroke-linecap="round" stroke-linejoin="round"/>
<path d="M15.6768 8.875V9.462" stroke="white" stroke-width="1.5" stroke-linecap="round" stroke-linejoin="round"/>
<path d="M9.08301 8.875V9.462" stroke="white" stroke-width="1.5" stroke-linecap="round" stroke-linejoin="round"/>
<path d="M12.828 10.1357V12.7627L11.9509 13.2979" stroke="white" stroke-width="1.5" stroke-linecap="round" stroke-linejoin="round"/>
<path d="M32.952 18H34.716V13.8H39.364V18H41.142V7.57H39.364V12.246H34.716V7.57H32.952V18ZM45.9402 10.286C44.4422 10.286 43.1822 11.084 42.7482 12.232L44.2042 12.96C44.4842 12.246 45.1282 11.798 45.9402 11.798C46.7802 11.798 47.3542 12.26 47.3542 12.96V13.198L44.8762 13.73C43.3502 14.066 42.4682 14.808 42.4682 15.928C42.4682 17.216 43.5322 18.168 45.2122 18.168C46.1222 18.168 46.8922 17.832 47.4522 17.16V18H49.0342V12.96C49.0342 11.392 47.7742 10.286 45.9402 10.286ZM45.4082 16.838C44.6802 16.838 44.2182 16.488 44.2182 15.914C44.2182 15.452 44.5822 15.088 45.2122 14.948L47.3542 14.472V14.962C47.3542 16.026 46.5282 16.838 45.4082 16.838ZM54.4684 10.286C53.4464 10.286 52.5924 10.65 52.0604 11.28V7.57H50.3804V18H51.9624V17.104C52.5084 17.79 53.4184 18.168 54.4544 18.168C56.6104 18.168 58.2764 16.46 58.2764 14.234C58.2764 11.994 56.5964 10.286 54.4684 10.286ZM54.2864 16.614C52.9844 16.614 52.0604 15.634 52.0604 14.234C52.0604 12.848 52.9844 11.84 54.2864 11.84C55.5744 11.84 56.5264 12.848 56.5264 14.234C56.5264 15.62 55.5744 16.614 54.2864 16.614ZM59.4162 9.46H61.0962V7.57H59.4162V9.46ZM59.4162 18H61.0962V10.454H59.4162V18ZM62.6577 18H64.3377V7.57H62.6577V18ZM65.8966 9.46H67.5766V7.57H65.8966V9.46ZM65.8966 18H67.5766V10.454H65.8966V18ZM72.5402 18.084C72.8062 18.084 73.1422 18.056 73.4082 18.014V16.67C73.2262 16.698 73.0442 16.712 72.9042 16.712C71.8402 16.712 71.5742 16.11 71.5742 15.466V11.966H73.3662V10.454H71.5742V8.116H69.8942V9.32C69.8942 10.048 69.4742 10.454 68.7462 10.454H68.5222V11.966H69.8942V15.466C69.8942 17.132 70.8462 18.084 72.5402 18.084ZM77.6453 10.286C76.1473 10.286 74.8873 11.084 74.4533 12.232L75.9093 12.96C76.1893 12.246 76.8333 11.798 77.6453 11.798C78.4853 11.798 79.0593 12.26 79.0593 12.96V13.198L76.5813 13.73C75.0553 14.066 74.1733 14.808 74.1733 15.928C74.1733 17.216 75.2373 18.168 76.9173 18.168C77.8273 18.168 78.5973 17.832 79.1573 17.16V18H80.7393V12.96C80.7393 11.392 79.4793 10.286 77.6453 10.286ZM77.1133 16.838C76.3853 16.838 75.9233 16.488 75.9233 15.914C75.9233 15.452 76.2873 15.088 76.9173 14.948L79.0593 14.472V14.962C79.0593 16.026 78.2333 16.838 77.1133 16.838ZM85.7114 10.37C84.7874 10.37 84.0594 10.678 83.6674 11.504V10.454H82.0854V18H83.7654V13.73C83.7654 12.554 84.4654 11.882 85.5014 11.882H86.4114V10.37H85.7114ZM90.0594 18H91.8234V13.716H96.4994V12.176H91.8234V9.124H97.0314V7.57H90.0594V18ZM100.723 10.286C99.2254 10.286 97.9654 11.084 97.5314 12.232L98.9874 12.96C99.2674 12.246 99.9114 11.798 100.723 11.798C101.563 11.798 102.137 12.26 102.137 12.96V13.198L99.6594 13.73C98.1334 14.066 97.2514 14.808 97.2514 15.928C97.2514 17.216 98.3154 18.168 99.9954 18.168C100.905 18.168 101.675 17.832 102.235 17.16V18H103.817V12.96C103.817 11.392 102.557 10.286 100.723 10.286ZM100.191 16.838C99.4634 16.838 99.0014 16.488 99.0014 15.914C99.0014 15.452 99.3654 15.088 99.9954 14.948L102.137 14.472V14.962C102.137 16.026 101.311 16.838 100.191 16.838ZM108.622 18.168C110.232 18.168 111.548 17.244 111.996 16.012L110.54 15.27C110.246 16.096 109.546 16.614 108.622 16.614C107.39 16.614 106.494 15.606 106.494 14.234C106.494 12.834 107.39 11.84 108.622 11.84C109.532 11.84 110.246 12.372 110.54 13.184L111.996 12.456C111.534 11.182 110.218 10.286 108.622 10.286C106.396 10.286 104.744 11.966 104.744 14.22C104.744 16.474 106.41 18.168 108.622 18.168ZM120.024 13.954C120.024 11.952 118.512 10.286 116.384 10.286C114.256 10.286 112.646 11.952 112.646 14.22C112.646 16.432 114.228 18.168 116.51 18.168C118.05 18.168 119.282 17.384 119.744 16.306L118.358 15.634C118.022 16.25 117.42 16.684 116.524 16.684C115.362 16.684 114.48 15.914 114.396 14.71H119.94C119.996 14.486 120.024 14.22 120.024 13.954ZM114.424 13.408C114.62 12.302 115.404 11.686 116.384 11.686C117.35 11.686 118.162 12.4 118.218 13.408H114.424ZM123.692 18H125.456V7.57H123.692V18ZM127.356 18H130.758C134.034 18 136.148 15.858 136.148 12.778C136.148 9.698 134.034 7.57 130.758 7.57H127.356V18ZM129.12 16.446V9.124H130.8C132.956 9.124 134.356 10.552 134.356 12.778C134.356 15.004 132.97 16.446 130.8 16.446H129.12Z" fill="white"/>
</svg>
